<svg fill="#0c810cff" version="1.1" id="Capa_1"
     xmlns="http://www.w3.org/2000/svg"
     xmlns:xlink="http://www.w3.org/1999/xlink"
     viewBox="0 0 537.66 537.66" xml:space="preserve">
  <g id="SVGRepo_iconCarrier">
    <g>
      <g>
        <path d="M11.285,175.442h276.917L186.421,60.212c-2.939-5.875,0.006-10.64,6.574-10.64h149.931
                 c15.012,0.003,34.74,30.233,44.538,41.188c17.237,19.268,147.05,163.566,147.992,165.448c2.938,5.875,2.938,15.404,0,21.279
                 L360.14,477.449c-2.938,5.875-10.646,10.64-17.215,10.64H193.002c-6.57,0-9.514-4.765-6.576-10.64l98.746-114.347H11.285
                 c-6.234,0-11.285-5.052-11.285-11.285v-165.09C0,180.494,5.052,175.442,11.285,175.442z"/>
      </g>
    </g>
  </g>
</svg>
