<?xml version="1.0" encoding="utf-8"?>
<!-- Generator: Adobe Illustrator 27.2.0, SVG Export Plug-In . SVG Version: 6.00 Build 0)  -->
<svg version="1.1" id="Layer_1" xmlns="http://www.w3.org/2000/svg" xmlns:xlink="http://www.w3.org/1999/xlink" x="0px" y="0px"
	 viewBox="0 0 512 512" style="enable-background:new 0 0 512 512;" xml:space="preserve">
<style type="text/css">
	.st0{fill:#000000;}
</style>
<g>
	<path class="st0" d="M112.68,119.79l69.98-69.85c66.59-66.59,174.55-66.59,241.14,0c66.59,66.59,66.59,174.55,0,241.14
		L210.35,504.51c-10,9.99-26.21,9.99-36.2-0.01c-10-10-9.99-26.21,0.01-36.2L387.6,254.88c46.6-46.59,46.6-122.14,0-168.73
		c-45.14-45.14-117.45-46.55-164.3-4.22l-4.45,4.23l-93.2,93.01l117.4,0.01c13.13,0,23.95,9.88,25.43,22.61l0.17,2.99
		c0,13.13-9.88,23.95-22.61,25.43l-2.99,0.17l-180.72-0.04l-2.44-0.26l-2.86-0.62l-3.37-1.19l-2.1-1.03l-2.61-1.64l-3.2-2.72
		l-2.35-2.7l-1.9-2.92l-1.17-2.37l-0.98-2.71l-0.4-1.47l-0.4-2.09l-0.19-1.57l-0.1-2.28V25.66c0-14.14,11.46-25.6,25.6-25.6
		c13.13,0,23.95,9.88,25.43,22.61l0.17,2.99V143l93.21-93.06L112.68,119.79z"/>
</g>
</svg>
